{
  "asset": {
    "generator": "Khronos glTF Blender I/O v3.5.30",
    "version": "2.0"
  },
  "extensionsUsed": [
    "KHR_materials_sheen",
    "KHR_materials_specular",
    "KHR_materials_ior"
  ],
  "scene": 0,
  "scenes": [
    {
      "name": "Scene",
      "nodes": [
        0,
        1,
        2
      ]
    }
  ],
  "nodes": [
    {
      "mesh": 0,
      "name": "Cube",
      "scale": [
        -2.282163619995117,
        -1.0785458087921143,
        -1.0785458087921143
      ],
      "translation": [
        0,
        0,
        -0.08462239056825638
      ]
    },
    {
      "mesh": 1,
      "name": "Torus",
      "translation": [
        -1.7974708080291748,
        0.23069524765014648,
        1.3072458505630493
      ]
    },
    {
      "mesh": 2,
      "name": "Plane",
      "scale": [
        20.562957763671875,
        20.562957763671875,
        20.562957763671875
      ]
    }
  ],
  "materials": [
    {
      "doubleSided": true,
      "extensions": {
        "KHR_materials_sheen": {
          "sheenColorFactor": [
            0.014175615273416042,
            0.0781940445303917,
            0.32355937361717224
          ],
          "sheenRoughnessFactor": 1
        }
      },
      "name": "Material",
      "pbrMetallicRoughness": {}
    },
    {
      "doubleSided": true,
      "extensions": {
        "KHR_materials_specular": {
          "specularColorFactor": [
            0.07012650599102124,
            0.08212463636535806,
            0.06787844561936202
          ]
        },
        "KHR_materials_ior": {
          "ior": 6.149999618530273
        }
      },
      "name": "Material.001",
      "pbrMetallicRoughness": {
        "baseColorFactor": [
          0.15696534514427185,
          0.8000000715255737,
          0.036481499671936035,
          1
        ],
        "metallicFactor": 0.31192660331726074,
        "roughnessFactor": 0.2889908254146576
      }
    },
    {
      "doubleSided": true,
      "name": "Material.002",
      "pbrMetallicRoughness": {
        "baseColorFactor": [
          0,
          0.5054264068603516,
          1,
          1
        ],
        "metallicFactor": 0,
        "roughnessFactor": 0
      }
    }
  ],
  "meshes": [
    {
      "name": "Cube",
      "primitives": [
        {
          "attributes": {
            "POSITION": 0,
            "TEXCOORD_0": 1,
            "NORMAL": 2
          },
          "indices": 3,
          "material": 0
        }
      ]
    },
    {
      "name": "Torus",
      "primitives": [
        {
          "attributes": {
            "POSITION": 4,
            "TEXCOORD_0": 5,
            "NORMAL": 6
          },
          "indices": 7,
          "material": 1
        }
      ]
    },
    {
      "name": "Plane",
      "primitives": [
        {
          "attributes": {
            "POSITION": 8,
            "TEXCOORD_0": 9,
            "NORMAL": 10
          },
          "indices": 11,
          "material": 2
        }
      ]
    }
  ],
  "accessors": [
    {
      "bufferView": 0,
      "componentType": 5126,
      "count": 19,
      "max": [
        1,
        1,
        1.4171719551086426
      ],
      "min": [
        -0.7668944597244263,
        -0.8261668682098389,
        -1
      ],
      "type": "VEC3"
    },
    {
      "bufferView": 1,
      "componentType": 5126,
      "count": 19,
      "type": "VEC2"
    },
    {
      "bufferView": 2,
      "componentType": 5126,
      "count": 19,
      "type": "VEC3"
    },
    {
      "bufferView": 3,
      "componentType": 5123,
      "count": 48,
      "type": "SCALAR"
    },
    {
      "bufferView": 4,
      "componentType": 5126,
      "count": 637,
      "max": [
        1.25,
        0.25,
        1.25
      ],
      "min": [
        -1.25,
        -0.25,
        -1.25
      ],
      "type": "VEC3"
    },
    {
      "bufferView": 5,
      "componentType": 5126,
      "count": 637,
      "type": "VEC2"
    },
    {
      "bufferView": 6,
      "componentType": 5126,
      "count": 637,
      "type": "VEC3"
    },
    {
      "bufferView": 7,
      "componentType": 5123,
      "count": 3456,
      "type": "SCALAR"
    },
    {
      "bufferView": 8,
      "componentType": 5126,
      "count": 4,
      "max": [
        1,
        0,
        1
      ],
      "min": [
        -1,
        0,
        -1
      ],
      "type": "VEC3"
    },
    {
      "bufferView": 9,
      "componentType": 5126,
      "count": 4,
      "type": "VEC2"
    },
    {
      "bufferView": 10,
      "componentType": 5126,
      "count": 4,
      "type": "VEC3"
    },
    {
      "bufferView": 11,
      "componentType": 5123,
      "count": 6,
      "type": "SCALAR"
    }
  ],
  "bufferViews": [
    {
      "buffer": 0,
      "byteLength": 228,
      "byteOffset": 0,
      "target": 34962
    },
    {
      "buffer": 0,
      "byteLength": 152,
      "byteOffset": 228,
      "target": 34962
    },
    {
      "buffer": 0,
      "byteLength": 228,
      "byteOffset": 380,
      "target": 34962
    },
    {
      "buffer": 0,
      "byteLength": 96,
      "byteOffset": 608,
      "target": 34963
    },
    {
      "buffer": 0,
      "byteLength": 7644,
      "byteOffset": 704,
      "target": 34962
    },
    {
      "buffer": 0,
      "byteLength": 5096,
      "byteOffset": 8348,
      "target": 34962
    },
    {
      "buffer": 0,
      "byteLength": 7644,
      "byteOffset": 13444,
      "target": 34962
    },
    {
      "buffer": 0,
      "byteLength": 6912,
      "byteOffset": 21088,
      "target": 34963
    },
    {
      "buffer": 0,
      "byteLength": 48,
      "byteOffset": 28000,
      "target": 34962
    },
    {
      "buffer": 0,
      "byteLength": 32,
      "byteOffset": 28048,
      "target": 34962
    },
    {
      "buffer": 0,
      "byteLength": 48,
      "byteOffset": 28080,
      "target": 34962
    },
    {
      "buffer": 0,
      "byteLength": 12,
      "byteOffset": 28128,
      "target": 34963
    }
  ],
  "buffers": [
    {
      "uri": "test_data.bin",
      "byteLength": 28140
    }
  ]
}